<?xml version="1.0" standalone="no"?>
<!DOCTYPE svg PUBLIC "-//W3C//DTD SVG 20010904//EN"
 "http://www.w3.org/TR/2001/REC-SVG-20010904/DTD/svg10.dtd">
<svg version="1.0" xmlns="http://www.w3.org/2000/svg"
 width="680.000000pt" height="680.000000pt" viewBox="0 0 680.000000 680.000000"
 preserveAspectRatio="xMidYMid meet">
<metadata>
Created by potrace 1.11, written by Peter Selinger 2001-2013
</metadata>
<g transform="translate(0.000000,680.000000) scale(0.100000,-0.100000)"
fill="#000000" stroke="none">
<path d="M4775 6774 c-11 -8 -44 -27 -73 -41 -44 -20 -57 -33 -74 -71 -12 -26
-24 -49 -27 -52 -35 -31 -110 -174 -98 -186 3 -3 17 11 32 30 15 20 31 36 36
36 17 0 9 -30 -11 -42 -11 -7 -20 -23 -20 -35 0 -12 -5 -23 -10 -25 -14 -4
-23 -45 -22 -100 1 -28 -3 -48 -9 -48 -7 0 -9 -10 -5 -25 12 -49 -42 -18 -59
34 -3 12 0 33 9 48 8 16 17 35 21 43 3 8 12 26 20 40 8 13 12 27 9 30 -3 2
-10 -3 -15 -12 -5 -9 -16 -23 -23 -30 -7 -8 -21 -28 -29 -45 -38 -72 -225
-263 -259 -263 -13 0 -34 -12 -47 -25 -13 -14 -29 -25 -37 -25 -8 0 -19 -9
-26 -20 -8 -13 -24 -20 -44 -20 -35 0 -101 -47 -122 -87 -20 -37 -54 -73 -69
-73 -7 0 -13 -3 -13 -8 0 -4 -17 -16 -37 -27 -21 -11 -61 -42 -90 -70 -88 -86
-141 -115 -210 -115 -21 0 -41 -9 -59 -27 -35 -35 -141 -103 -148 -96 -3 4 -6
-1 -6 -10 0 -10 -6 -17 -13 -17 -18 0 -67 -23 -67 -32 0 -4 -7 -5 -15 -2 -8 4
-23 0 -32 -7 -11 -10 -56 -15 -152 -17 -91 -2 -146 -8 -168 -18 -17 -8 -58
-14 -91 -14 -41 0 -63 -5 -72 -15 -7 -8 -23 -15 -36 -15 -14 0 -32 -4 -42 -9
-17 -8 -62 -28 -112 -49 -45 -19 -114 -31 -164 -30 -35 1 -51 -3 -54 -13 -11
-35 -56 -68 -101 -75 -63 -9 -149 -46 -238 -101 -29 -18 -57 -33 -63 -33 -5 0
-10 -4 -10 -10 0 -5 -13 -10 -30 -10 -22 0 -28 -4 -24 -15 4 -10 0 -15 -10
-15 -17 0 -28 -7 -67 -42 -10 -10 -24 -18 -30 -18 -8 0 -8 -5 1 -15 11 -13 8
-15 -14 -15 -21 0 -30 -7 -41 -34 -8 -19 -23 -37 -34 -41 -11 -3 -44 -36 -74
-73 -30 -37 -77 -89 -103 -117 -97 -99 -274 -307 -274 -321 0 -8 -4 -14 -8
-14 -5 0 -18 -9 -30 -20 -12 -11 -27 -19 -33 -18 -7 2 -24 -30 -39 -72 -15
-41 -29 -82 -32 -90 -3 -8 -14 -42 -23 -75 -10 -33 -46 -114 -80 -180 -34 -66
-69 -152 -79 -190 -50 -208 -97 -349 -137 -415 -21 -36 -41 -81 -45 -100 -10
-59 -55 -169 -80 -200 -14 -16 -34 -30 -46 -32 -15 -2 -31 -21 -50 -57 l-28
-53 0 -625 c0 -611 0 -626 22 -696 11 -40 34 -94 49 -122 39 -70 67 -145 94
-250 22 -89 52 -154 86 -187 10 -10 23 -26 31 -36 23 -33 101 -69 173 -82 39
-6 84 -16 100 -20 123 -36 158 -40 312 -40 152 0 161 -1 174 -21 10 -15 29
-22 69 -27 47 -6 57 -11 68 -35 8 -16 21 -27 33 -27 26 0 69 -29 69 -46 0 -19
7 -22 126 -41 104 -16 134 -28 134 -52 0 -6 7 -11 15 -11 8 0 17 -11 21 -25 8
-32 25 -41 94 -50 30 -4 61 -12 69 -19 9 -7 79 -12 192 -14 l179 -4 9 24 c13
35 37 51 77 52 34 1 37 -2 54 -44 13 -35 23 -46 42 -48 32 -4 48 -38 48 -103
0 -79 20 -104 120 -147 14 -6 52 -14 85 -17 33 -3 74 -11 91 -17 34 -12 88 -3
79 12 -3 6 3 10 14 10 10 0 26 3 35 6 12 4 16 0 16 -15 0 -12 6 -21 15 -21 19
0 55 36 55 55 0 16 14 19 73 16 21 -2 37 2 37 8 0 6 5 11 10 11 16 0 11 -26
-8 -43 -10 -10 -28 -17 -40 -17 -24 0 -38 -16 -19 -23 16 -6 87 22 87 34 0 5
6 9 14 9 15 0 26 21 26 50 0 9 7 23 15 30 11 10 15 35 15 110 0 84 -3 99 -20
115 -21 19 -50 101 -50 140 0 12 -9 30 -20 40 -12 11 -20 31 -20 49 0 20 -7
36 -20 44 -16 9 -20 23 -20 61 0 46 2 51 38 73 36 22 46 23 267 26 242 3 270
8 310 52 15 17 30 20 94 20 l76 0 55 -53 c83 -79 122 -131 139 -186 12 -35 36
-72 86 -126 136 -149 201 -212 258 -248 l57 -37 230 0 c147 0 230 4 230 10 0
6 24 10 53 10 48 0 57 4 88 36 33 34 34 38 34 108 -1 64 -4 77 -27 105 -15 17
-29 40 -33 50 -3 11 -18 24 -33 29 -15 5 -44 26 -66 45 -35 31 -62 46 -173 93
-18 8 -33 20 -33 28 0 8 -21 25 -47 37 -27 13 -81 56 -120 97 -43 43 -80 72
-89 70 -22 -4 42 -89 113 -148 29 -24 51 -50 49 -56 -3 -7 2 -15 10 -18 18 -7
18 -50 1 -65 -8 -6 -22 -12 -33 -14 -10 -2 -27 -7 -37 -12 -10 -4 -20 -5 -23
-2 -11 11 7 45 26 50 13 3 18 11 14 21 -8 22 -15 20 -47 -9 -29 -28 -33 -45
-16 -77 11 -21 3 -41 -9 -22 -15 24 -50 25 -66 3 l-15 -23 -33 34 c-17 19 -41
35 -52 36 -62 8 -80 15 -95 36 -9 13 -16 26 -15 31 1 4 2 15 3 25 1 13 6 10
21 -13 11 -16 20 -24 20 -17 0 6 11 12 25 12 15 0 25 6 25 14 0 9 7 12 20 9
14 -4 19 -11 15 -23 -4 -11 1 -20 12 -24 10 -4 14 -4 11 0 -4 3 5 22 19 40 24
32 25 36 9 53 -9 9 -16 23 -16 30 0 7 -4 9 -10 6 -6 -3 -7 1 -4 9 5 12 0 16
-19 16 -18 0 -31 9 -44 30 -20 34 -25 36 -43 15 -10 -12 -10 -22 -2 -39 10
-22 8 -25 -15 -31 -14 -3 -28 -4 -31 0 -3 3 0 5 6 5 6 0 9 7 6 15 -4 8 -14 15
-24 15 -10 0 -21 6 -23 13 -3 6 -6 2 -6 -10 -1 -31 9 -53 25 -53 21 0 17 -18
-6 -30 -18 -9 -20 -8 -20 14 0 18 -4 24 -15 20 -8 -4 -16 -1 -16 5 -1 6 -3 16
-4 21 -1 6 -3 14 -4 18 0 5 -17 14 -36 22 -31 12 -35 18 -35 52 0 21 -5 37
-10 35 -14 -3 -71 126 -77 175 -5 31 -2 39 13 44 42 14 162 73 168 82 12 20
-44 44 -84 37 -29 -5 -47 -2 -69 11 -40 24 -96 9 -95 -24 0 -16 -4 -21 -13
-18 -8 3 -18 -4 -23 -17 -5 -12 -9 -16 -9 -9 -1 6 -7 12 -15 12 -19 0 -26 20
-15 42 7 13 2 21 -20 34 -27 16 -41 40 -41 72 0 7 5 10 10 7 6 -3 10 -1 10 4
0 6 -5 11 -10 11 -6 0 -13 7 -16 15 -4 10 11 32 40 61 45 44 56 64 36 64 -5 0
-10 -5 -10 -11 0 -5 -16 -17 -35 -25 -20 -8 -38 -21 -42 -29 -11 -29 -21 -14
-28 41 -5 45 -3 59 11 75 9 10 22 19 27 19 6 0 3 -8 -6 -18 -10 -10 -17 -22
-17 -25 0 -12 23 -8 39 7 12 11 28 12 70 5 30 -4 57 -6 62 -4 10 7 102 16 174
17 36 0 64 6 70 14 5 7 30 14 55 16 38 2 52 10 87 45 35 36 41 48 39 81 -1 21
-12 52 -25 70 -20 29 -24 30 -38 17 -13 -14 -17 -13 -35 7 -16 19 -19 20 -14
4 5 -14 2 -17 -10 -12 -8 3 -18 6 -20 6 -2 0 -4 8 -4 18 -1 15 -2 15 -18 -3
-9 -11 -21 -20 -27 -20 -89 -4 -196 -20 -206 -31 -14 -17 -36 -18 -42 -1 -3 8
-11 5 -26 -11 -12 -12 -26 -22 -31 -22 -5 0 -18 -10 -29 -21 -12 -13 -26 -19
-36 -16 -8 4 -17 5 -19 4 -1 -1 -10 4 -19 12 -15 11 -18 10 -27 -14 -7 -18
-15 -25 -26 -21 -8 3 -22 2 -32 -3 -9 -5 -37 -17 -62 -27 -25 -10 -50 -24 -56
-31 -12 -14 -50 -18 -57 -6 -3 5 -32 6 -65 5 -47 -3 -60 -7 -55 -18 3 -8 -1
-14 -10 -14 -17 0 -27 -29 -27 -82 0 -30 -5 -39 -27 -50 -23 -11 -28 -20 -28
-48 0 -28 -5 -37 -27 -48 -27 -12 -38 -45 -20 -56 5 -3 7 -18 4 -34 -4 -27 -5
-28 -58 -27 -30 1 -54 -1 -54 -6 0 -4 -10 -9 -22 -11 -21 -3 -23 -9 -23 -58 0
-30 6 -66 14 -79 10 -18 10 -25 1 -31 -8 -5 -10 -22 -6 -48 3 -22 -1 -65 -9
-94 -7 -29 -11 -56 -9 -60 2 -3 -3 -28 -12 -55 -18 -52 -15 -164 6 -218 6 -16
15 -53 19 -84 5 -31 13 -67 17 -80 6 -22 5 -23 -17 -17 -13 5 -39 10 -56 13
-26 4 -33 10 -33 28 0 13 -6 26 -12 28 -10 4 -10 8 0 15 11 7 11 10 -2 15 -9
4 -16 15 -16 26 0 11 -5 21 -11 23 -13 4 7 47 29 61 6 4 12 14 12 22 0 7 6 16
13 19 6 3 3 4 -9 1 -13 -4 -30 4 -48 20 -15 14 -32 25 -39 25 -7 0 -4 -7 6
-14 24 -19 13 -23 -53 -22 -40 1 -58 -3 -67 -16 -8 -10 -33 -18 -65 -22 -29
-3 -64 -6 -78 -8 -14 -2 -26 2 -28 7 -1 6 8 11 22 13 33 4 48 23 30 40 -11 10
-14 10 -14 -2 0 -7 -6 -16 -12 -19 -8 -3 -13 4 -13 19 0 13 4 24 9 24 4 0 6
10 3 21 -6 22 17 67 40 82 7 4 13 12 13 17 0 14 -34 12 -48 -2 -10 -10 -15
-10 -22 2 -12 19 -2 32 20 25 14 -4 16 -1 12 20 -4 26 -29 34 -48 15 -6 -6
-10 -3 -11 10 -1 11 4 20 13 20 21 0 17 18 -6 25 -29 9 -25 28 5 23 14 -3 28
-1 31 3 5 9 -24 14 -60 10 -17 -1 -15 3 10 29 31 32 50 39 41 16 -3 -8 1 -20
10 -28 13 -10 17 -10 20 0 9 25 133 6 133 -21 0 -14 -44 -25 -52 -14 -4 8 -9
6 -13 -5 -10 -25 3 -42 21 -27 8 6 17 9 21 5 3 -3 2 -6 -4 -6 -6 0 -13 -9 -16
-20 -6 -24 15 -27 37 -4 15 14 18 13 32 -21 18 -44 30 -42 58 12 16 32 28 43
53 48 37 7 43 21 38 86 -5 71 -30 109 -72 109 -27 0 -48 33 -30 48 25 20 98
53 106 47 13 -7 21 20 10 36 -6 11 -12 11 -27 3 -13 -8 -24 -9 -36 -2 -13 7
-21 7 -26 -2 -6 -10 -13 -9 -30 3 -15 11 -29 13 -44 7 -17 -6 -27 -2 -43 16
-11 12 -18 26 -15 29 4 3 7 16 7 27 0 16 9 24 33 30 39 10 42 26 5 30 -21 2
-29 10 -35 37 -8 30 -12 32 -36 26 -32 -8 -45 -8 -135 1 -54 5 -67 9 -63 21 3
8 6 16 6 17 0 2 12 1 27 -2 21 -4 25 -2 20 12 -4 10 -1 16 8 16 8 0 15 -4 15
-10 0 -5 7 -10 15 -10 8 0 20 -9 27 -20 15 -23 38 -27 38 -6 0 7 7 19 15 26
20 17 30 79 16 102 -9 14 -8 18 4 18 8 0 15 -4 15 -9 0 -5 17 -15 38 -23 48
-20 141 -17 171 4 13 9 29 14 36 12 7 -3 16 -1 20 5 3 6 16 11 29 11 35 0 61
68 45 118 -4 15 -11 39 -13 53 -4 19 -19 32 -61 53 -31 15 -60 24 -65 21 -6
-3 -16 -3 -22 2 -7 4 -22 7 -33 8 -15 0 -21 8 -23 33 -4 38 -22 33 -22 -5 0
-25 -1 -25 -18 -10 -25 23 -32 21 -32 -8 0 -26 -8 -29 -65 -26 -41 2 -49 14
-27 42 18 23 25 110 10 125 -4 3 -4 12 -1 20 5 14 54 20 66 8 3 -3 28 -7 56
-8 28 -2 62 -11 77 -21 19 -13 37 -15 69 -11 41 7 42 7 40 44 -4 67 -4 66 -19
52 -8 -6 -12 -18 -9 -27 3 -8 -6 -3 -20 11 -14 14 -28 35 -32 46 -8 24 -60 54
-81 46 -10 -4 -14 3 -14 24 0 20 -5 30 -15 30 -13 0 -14 4 -5 21 7 11 9 23 6
27 -3 3 -6 -1 -6 -9 0 -8 -7 -1 -15 15 -15 27 -13 46 5 46 5 0 11 -8 13 -17 4
-14 5 -13 6 3 0 12 9 25 19 29 16 7 16 8 -2 14 -11 4 -20 17 -21 29 -3 36 8
32 85 -40 11 -9 22 -12 27 -7 8 8 56 -3 96 -23 9 -4 39 -11 65 -15 26 -3 53
-10 59 -16 22 -16 43 0 43 33 0 24 -4 30 -17 28 -12 -2 -17 3 -15 14 1 9 -7
22 -18 28 -14 8 -20 21 -20 45 0 38 -30 66 -75 71 -29 3 -95 41 -95 55 0 5 -6
9 -14 9 -10 0 -14 9 -13 28 2 16 -5 33 -16 42 -19 15 -18 16 4 15 31 0 73 -30
64 -45 -8 -14 24 -40 41 -33 7 2 23 -2 36 -11 31 -20 128 -20 128 0 0 8 -7 17
-15 21 -9 3 -22 18 -31 34 -11 22 -22 29 -44 29 -17 0 -30 4 -30 9 0 14 26 31
46 30 64 -6 69 9 15 39 -41 23 -88 89 -74 103 5 5 24 -2 42 -15 18 -13 46 -30
62 -36 16 -7 29 -16 29 -21 0 -11 11 -11 28 0 11 6 10 15 -4 44 -18 38 -11 64
9 36 12 -16 70 -35 95 -30 6 1 12 -5 12 -14 0 -20 28 -50 38 -40 4 4 1 10 -5
12 -15 5 -17 33 -3 33 6 0 10 -5 10 -10 0 -6 11 -23 25 -38 14 -15 25 -33 25
-41 0 -7 8 -21 18 -30 21 -20 44 -69 37 -81 -3 -5 9 -16 26 -24 40 -20 39 -20
39 4 0 11 -4 20 -8 20 -17 0 -39 66 -34 103 5 45 20 48 35 7 6 -16 15 -30 19
-30 4 0 8 -13 8 -29 0 -16 7 -34 15 -41 13 -11 16 -8 21 19 4 17 11 34 15 37
5 3 9 25 9 49 0 29 5 45 15 49 21 8 19 32 -5 64 -11 15 -23 51 -27 79 -5 45
-10 54 -33 65 -18 8 -26 17 -23 29 4 15 0 17 -27 12 -32 -5 -33 -4 -27 26 5
23 3 31 -7 31 -8 0 -17 6 -20 13 -3 6 -3 2 -1 -10 3 -12 1 -24 -5 -28 -17 -11
-20 -2 -11 31 5 21 4 32 -7 40 -12 8 -12 15 -3 32 9 17 21 22 52 22 22 0 38 4
34 9 -3 5 -1 12 5 16 5 3 10 -1 10 -11 0 -11 6 -15 19 -11 15 3 21 -1 23 -17
4 -30 30 -26 34 6 3 33 -18 52 -50 44 -32 -8 -79 28 -71 55 7 21 -13 27 -31 9
-7 -7 -17 -2 -31 14 -12 13 -19 27 -16 29 3 3 2 11 -2 18 -6 8 -13 5 -26 -12
l-18 -24 4 44 c6 53 11 60 29 36 7 -10 18 -15 24 -11 15 9 16 36 2 36 -5 0
-10 6 -10 14 0 7 -10 16 -22 19 -18 5 -19 8 -8 22 12 14 10 16 -16 11 -16 -4
-23 -3 -16 0 6 3 10 10 7 14 -3 5 0 19 7 30 11 18 10 23 -5 34 -15 12 -15 15
-2 26 12 10 15 10 15 -1 0 -16 50 -69 65 -69 6 0 17 -16 25 -35 9 -22 20 -35
32 -35 16 0 23 -17 19 -42 0 -5 2 -7 7 -6 18 5 51 -25 65 -61 23 -57 46 -67
50 -22 2 25 7 26 33 6 10 -8 31 -15 45 -15 15 0 44 -8 65 -17 45 -20 113 -25
132 -10 15 12 28 1 34 -28 2 -11 10 -20 18 -20 8 -1 31 -5 51 -9 32 -7 37 -12
43 -44 3 -20 1 -41 -4 -46 -18 -18 -10 -26 16 -20 22 6 25 4 18 -7 -5 -8 -10
-25 -12 -39 -2 -14 -12 -32 -24 -41 -22 -17 -11 -34 12 -18 40 24 41 -12 2
-39 -22 -16 -38 -19 -77 -15 -28 3 -54 12 -58 20 -5 8 -16 11 -25 9 -11 -4
-22 2 -29 14 -15 24 -2 34 33 26 14 -4 24 -2 24 4 0 7 6 8 19 0 21 -11 48 -4
69 17 22 22 -30 36 -65 18 -24 -13 -29 -13 -36 0 -12 22 -34 18 -41 -7 -7 -30
-44 -54 -59 -39 -8 8 -7 19 6 40 19 32 14 43 -18 35 -12 -3 -40 2 -61 12 -21
10 -46 18 -54 18 -9 1 -16 12 -18 29 -4 32 -24 35 -51 8 -27 -27 -22 -77 6
-73 11 1 26 -4 33 -13 7 -8 21 -15 31 -15 11 0 19 -6 19 -14 0 -8 14 -28 30
-45 30 -29 30 -31 19 -76 -7 -29 -8 -49 -2 -58 18 -22 21 -56 7 -74 -19 -26
-17 -33 10 -33 14 0 31 -6 38 -13 7 -7 32 -13 56 -14 23 0 45 -3 48 -6 3 -3
-2 -29 -10 -58 -9 -29 -16 -59 -16 -66 0 -26 18 -4 24 29 4 18 17 41 30 50 22
16 23 16 40 -18 l16 -35 29 23 c16 13 31 32 33 43 2 11 13 25 26 31 21 10 22
12 5 19 -10 5 -22 7 -27 6 -16 -4 -56 21 -56 35 0 21 -22 28 -35 11 -7 -10
-17 -17 -24 -17 -6 0 -14 -7 -17 -15 -4 -8 -10 -15 -16 -15 -15 0 -35 24 -31
37 2 6 -5 17 -17 23 -12 7 -19 18 -16 25 3 8 0 17 -6 21 -7 4 -8 3 -4 -4 5 -8
-2 -12 -21 -11 -15 0 -22 3 -15 6 6 2 10 9 7 13 -3 5 -12 7 -20 3 -8 -3 -15
-1 -15 4 0 18 11 21 45 12 29 -8 38 -6 54 10 14 14 16 22 8 30 -8 8 -8 11 2
11 26 0 49 -20 54 -48 5 -24 12 -31 37 -34 29 -4 40 5 20 17 -13 8 -13 52 0
60 6 4 17 1 25 -5 11 -9 19 -8 36 4 13 9 32 13 45 10 15 -4 22 -1 21 8 -1 33
5 46 35 68 24 17 33 20 36 10 3 -9 10 -6 22 10 17 22 19 23 35 6 24 -24 45 -4
27 25 -11 18 -11 24 4 40 17 19 16 21 -21 59 -36 37 -40 53 -12 56 7 0 20 2
30 2 22 2 22 14 -3 43 -17 21 -21 22 -30 9 -5 -8 -10 -11 -10 -6 0 5 7 17 15
26 12 13 13 22 3 48 -7 18 -18 32 -24 32 -7 0 -20 7 -29 16 -9 9 -17 15 -18
13 -1 -2 -7 -13 -13 -24 -6 -11 -21 -21 -33 -23 -13 -2 -21 -11 -21 -22 0 -30
-19 -34 -40 -8 -17 19 -21 21 -29 8 -6 -8 -11 -12 -13 -10 -11 15 -28 81 -24
89 3 5 -2 7 -12 4 -10 -2 -24 -17 -31 -34 -17 -38 -31 -37 -31 4 0 37 14 65
24 49 7 -12 37 -4 48 12 12 19 -25 24 -61 10 -20 -9 -38 -11 -45 -5 -6 5 -25
12 -43 15 -24 6 -34 3 -41 -11 -8 -14 -22 -18 -61 -17 -28 0 -54 4 -58 8 -4 3
-2 24 3 45 l10 38 -34 -20 -34 -20 4 29 c3 32 53 68 66 48 5 -8 23 -9 61 -3
59 9 71 6 71 -18 0 -9 3 -14 6 -11 3 4 -2 28 -12 56 l-18 49 -55 -2 c-85 -2
-102 9 -99 63 2 43 2 44 35 37 30 -5 33 -3 41 27 11 41 6 53 -14 33 -17 -16
-44 -20 -44 -6 0 12 26 32 47 35 10 2 20 11 22 21 2 10 8 24 15 31 29 34 36
44 36 55 0 6 8 9 19 6 16 -4 20 2 23 31 3 27 0 36 -14 40 -10 2 -18 8 -18 13
0 5 -19 30 -41 54 -34 36 -42 54 -44 88 -1 23 -9 58 -18 77 -8 19 -16 38 -16
42 -1 4 -12 19 -25 33 -25 27 -62 35 -53 11 14 -36 -59 -50 -81 -16 -10 17
-16 18 -32 10 -16 -9 -20 -8 -20 5 0 8 6 15 13 15 6 0 19 18 28 39 l16 38 -85
6 c-72 4 -95 1 -155 -19 -39 -13 -75 -23 -81 -21 -5 2 29 15 75 31 109 35 177
68 171 84 -10 30 -229 4 -366 -44 -38 -13 -71 -22 -73 -20 -12 11 222 79 317
91 25 4 56 8 69 11 l24 5 -22 20 c-28 27 -22 45 15 41 22 -2 26 0 14 8 -8 5
-28 10 -45 10 -16 0 -41 7 -54 14 l-24 13 27 5 c22 4 125 -9 171 -22 19 -5 55
0 55 8 0 19 -122 44 -145 30 -15 -8 -91 16 -85 27 6 12 27 11 90 -4 25 -5 65
-10 89 -11 43 0 44 0 26 20 -10 11 -22 17 -28 13 -7 -4 -8 0 -4 11 5 14 3 17
-8 13 -8 -4 -18 0 -22 6 -11 18 -89 57 -116 57 -19 1 -67 31 -67 43 0 2 48
-15 108 -39 59 -24 121 -46 137 -49 l30 -7 -36 33 c-20 19 -34 40 -32 47 3 9
12 6 28 -10 13 -13 28 -23 32 -23 17 -1 132 -65 140 -78 4 -7 21 -23 37 -35
22 -17 25 -22 11 -22 -10 0 -35 16 -56 35 -48 43 -69 45 -69 6 0 -20 8 -34 25
-45 14 -9 25 -22 24 -29 0 -9 -2 -9 -6 1 -2 6 -16 12 -30 12 -20 0 -23 -4 -18
-20 6 -18 2 -20 -46 -20 -29 0 -50 -3 -47 -6 3 -3 25 -5 49 -6 24 0 67 -9 94
-19 66 -25 76 -23 40 6 -16 13 -26 27 -23 30 7 8 53 -21 85 -52 12 -13 27 -23
33 -23 17 0 11 35 -11 58 -11 13 -19 32 -17 45 3 21 4 20 18 -7 8 -16 33 -40
55 -52 47 -27 55 -29 55 -11 1 44 47 43 48 -1 0 -15 5 -67 10 -116 7 -71 6
-95 -5 -117 -17 -35 -58 -39 -94 -10 -13 10 -34 21 -47 25 -12 4 -20 11 -17
16 5 8 -27 20 -57 20 -33 0 -2 -45 92 -139 60 -60 99 -91 114 -91 12 0 27 -5
34 -12 7 -7 12 -9 12 -5 0 4 19 -6 42 -23 68 -49 80 -33 25 34 -49 60 -60 83
-48 104 22 41 59 56 186 74 99 14 124 13 142 -4 16 -16 25 -81 10 -71 -5 3
-26 6 -47 7 -37 1 -39 0 -33 -24 7 -30 20 -40 50 -40 13 0 30 -11 39 -25 9
-14 22 -25 28 -25 7 0 22 -13 34 -30 28 -38 43 -38 65 0 18 29 17 32 -12 34
-15 1 -15 2 -57 88 -15 32 -31 58 -36 58 -4 0 -8 7 -8 15 0 8 4 15 8 15 16 0
52 -37 52 -54 0 -9 6 -19 14 -22 8 -3 17 -16 20 -30 5 -17 13 -24 30 -24 38 0
56 -10 56 -32 0 -40 19 -58 60 -58 22 0 49 -6 60 -12 17 -11 22 -10 30 2 8 13
10 12 10 -2 0 -12 8 -18 24 -18 26 0 30 -7 41 -80 12 -77 14 -83 27 -91 17
-11 24 4 26 54 2 31 9 48 28 66 27 24 27 25 5 32 -12 5 -21 17 -21 29 0 15 -7
20 -29 20 -37 0 -57 22 -36 40 21 17 19 27 -6 35 -15 5 -18 10 -10 18 12 12
41 -8 41 -30 0 -7 8 -17 18 -20 9 -4 23 -14 30 -22 10 -12 15 -13 18 -3 3 6
20 12 37 11 29 0 30 -1 10 -9 -32 -13 -29 -24 5 -14 15 4 45 9 67 10 22 1 52
6 68 9 17 5 27 3 27 -4 0 -6 -10 -11 -22 -11 -32 0 -43 -10 -56 -49 -7 -19
-12 -35 -12 -37 0 -2 18 -8 40 -14 30 -8 40 -16 40 -31 0 -15 -5 -19 -15 -15
-8 3 -18 -1 -22 -8 -5 -7 -15 -16 -23 -20 -34 -16 -61 -34 -61 -40 1 -3 1 -8
1 -11 0 -3 -11 2 -24 10 -15 10 -25 12 -28 5 -1 -5 -13 -12 -25 -14 -25 -5
-63 -24 -63 -32 0 -21 22 -42 40 -37 11 3 31 2 45 -1 22 -6 24 -9 15 -26 -6
-11 -17 -20 -25 -20 -19 0 -19 -24 0 -40 19 -15 19 -31 1 -55 -13 -18 -15 -17
-44 14 -27 30 -52 35 -52 10 0 -6 -12 -21 -27 -34 l-28 -23 28 -11 c26 -10 27
-12 13 -27 -21 -20 -20 -26 4 -54 11 -13 20 -31 20 -41 0 -9 5 -19 12 -21 6
-2 8 -10 4 -17 -5 -7 -15 -10 -23 -7 -12 5 -14 1 -9 -19 4 -17 2 -25 -7 -25
-7 0 -26 -13 -42 -30 -15 -16 -32 -27 -36 -24 -8 4 -75 -29 -93 -47 -6 -5 -18
-9 -27 -9 -10 0 -24 -8 -31 -19 -7 -10 -22 -20 -33 -23 -15 -2 -19 -10 -17
-28 3 -19 1 -22 -10 -13 -22 18 -88 24 -88 8 0 -26 24 -33 129 -36 18 0 38 4
44 10 6 6 19 11 28 11 24 0 129 50 129 61 0 5 6 9 13 9 7 0 18 9 25 20 7 11
19 20 28 20 8 0 23 7 32 15 57 53 93 92 98 107 3 10 10 18 16 18 6 0 8 12 4
30 -4 23 -2 32 10 37 24 9 34 -17 27 -72 -4 -35 -13 -55 -30 -68 -12 -10 -23
-27 -23 -38 0 -11 -8 -23 -17 -26 -18 -7 -53 -41 -53 -52 0 -3 -16 -23 -36
-45 -19 -21 -36 -46 -37 -56 -1 -11 -7 -15 -18 -13 -10 3 -18 -3 -22 -16 -3
-12 -11 -21 -19 -21 -38 0 -83 -133 -57 -167 7 -10 10 -15 5 -11 -5 4 -18 3
-28 -3 -17 -9 -19 -18 -14 -49 4 -28 2 -41 -8 -47 -26 -15 -79 -118 -96 -188
-19 -75 -19 -91 1 -53 7 12 29 40 51 60 21 21 38 44 38 52 0 8 18 52 40 97 22
46 40 88 40 94 0 6 20 48 44 93 24 44 46 92 50 105 3 13 14 34 26 46 11 13 18
27 15 30 -2 4 12 15 31 26 19 10 34 21 34 24 0 3 14 21 30 40 25 28 50 85 50
114 0 4 12 20 26 34 51 51 84 177 84 319 0 69 5 78 93 169 116 121 157 168
157 185 0 8 7 28 15 44 36 69 48 125 55 255 5 101 11 137 22 145 21 15 41 56
28 56 -5 0 -10 7 -10 15 0 8 4 15 10 15 5 0 23 14 40 31 16 18 30 26 30 20 0
-23 44 -6 60 24 9 17 36 40 61 52 41 20 42 22 12 16 -37 -6 -46 11 -12 22 20
7 108 63 119 76 3 3 25 15 50 26 25 11 56 30 70 42 14 13 49 44 78 69 29 26
64 65 77 88 29 47 33 68 8 36 -10 -13 -30 -36 -44 -53 l-26 -30 5 27 c2 14 11
28 18 31 8 3 14 15 14 27 0 12 9 27 21 34 l21 13 -23 26 c-33 35 -76 51 -161
59 -40 4 -84 10 -98 15 -23 7 -23 7 8 8 19 1 31 5 27 11 -3 6 -46 10 -95 10
-65 0 -92 4 -104 15 -8 8 -23 15 -33 15 -10 0 -34 5 -54 10 -33 9 -38 15 -48
56 -14 57 -61 105 -130 135 -36 15 -53 29 -63 52 -7 18 -13 34 -13 37 -3 24
-19 50 -30 50 -8 0 -29 16 -48 35 -19 19 -40 35 -46 35 -21 0 -84 78 -96 120
-10 33 -46 70 -120 124 -116 84 -184 188 -210 321 -14 72 -85 266 -107 290 -4
5 -8 17 -8 27 0 10 -10 22 -22 27 -13 5 -36 21 -51 35 -32 30 -44 31 -72 10z
m79 -68 c15 -13 26 -28 26 -35 0 -6 5 -11 10 -11 15 0 57 -101 70 -168 17 -85
25 -316 11 -308 -6 4 -11 24 -11 45 0 20 -6 43 -12 50 -11 11 -10 12 1 6 11
-6 12 5 6 66 -7 75 -25 119 -48 119 -8 0 -12 -14 -12 -40 1 -38 -9 -53 -17
-28 -3 8 -9 8 -23 1 -18 -10 -17 -11 3 -24 22 -14 30 -39 13 -39 -17 0 -19
-40 -3 -53 10 -6 17 -23 17 -37 0 -23 -4 -25 -59 -27 -71 -4 -136 20 -136 50
0 15 5 18 24 13 30 -7 44 10 16 19 -11 4 -44 5 -73 4 -49 -2 -52 -1 -49 21 3
28 13 40 19 23 3 -7 14 -13 25 -13 14 0 18 5 14 15 -7 19 32 30 77 21 23 -4
28 -3 17 4 -8 5 -23 10 -32 10 -19 0 -24 15 -8 25 5 3 7 12 4 19 -3 8 -1 17 5
21 6 3 11 15 11 26 0 12 7 19 20 19 15 0 20 7 20 29 0 16 6 32 13 34 7 3 5 6
-5 6 -19 1 -26 31 -8 31 6 0 10 5 10 11 0 8 -4 8 -15 -1 -8 -6 -19 -9 -25 -5
-17 11 -11 25 11 25 14 0 19 5 17 18 -2 9 -11 15 -19 13 -34 -9 -44 -5 -45 17
-1 18 5 23 37 28 22 4 39 10 39 15 0 18 40 8 64 -15z m-230 -172 c3 -8 2 -12
-3 -9 -6 3 -14 -3 -20 -12 -10 -17 -10 -16 -11 3 0 34 23 47 34 18z m-14 -95
c0 -5 -4 -9 -10 -9 -5 0 -10 7 -10 16 0 8 5 12 10 9 6 -3 10 -10 10 -16z m0
-33 c0 -3 -4 -8 -10 -11 -5 -3 -10 -1 -10 4 0 6 5 11 10 11 6 0 10 -2 10 -4z
m-62 -61 c-3 -3 -9 2 -12 12 -6 14 -5 15 5 6 7 -7 10 -15 7 -18z m34 -47 c-9
-9 -12 -7 -12 12 0 19 3 21 12 12 9 -9 9 -15 0 -24z m345 6 c-3 -3 -12 -4 -19
-1 -8 3 -5 6 6 6 11 1 17 -2 13 -5z m-287 -107 c8 -3 31 -10 50 -16 71 -22
116 -81 62 -81 -9 0 -30 -9 -47 -20 -38 -25 -40 -25 -74 8 -47 45 -79 121 -46
108 8 -3 15 -1 15 3 0 9 13 9 40 -2z m230 -7 c0 -5 -7 -10 -15 -10 -8 0 -15 5
-15 10 0 6 7 10 15 10 8 0 15 -4 15 -10z m120 -40 c0 -5 -4 -10 -10 -10 -5 0
-10 5 -10 10 0 6 5 10 10 10 6 0 10 -4 10 -10z m-510 -9 c0 -10 -38 -24 -61
-22 -9 1 -26 -11 -38 -26 -11 -15 -25 -33 -31 -40 -6 -7 -15 -24 -22 -38 -6
-14 -17 -25 -25 -25 -37 0 15 122 55 128 12 2 35 10 50 18 30 16 72 19 72 5z
m503 -195 c-3 -14 -14 -33 -24 -42 -23 -21 -24 -12 -2 37 18 41 33 44 26 5z
m-452 -5 c11 -10 29 -16 42 -14 15 3 26 -3 35 -17 7 -12 11 -24 9 -27 -11 -10
-96 -4 -129 10 -19 8 -47 12 -63 10 -22 -5 -26 -3 -23 13 2 13 18 23 48 31 60
15 58 16 81 -6z m639 -255 c0 -3 -4 -8 -10 -11 -5 -3 -10 -1 -10 4 0 6 5 11
10 11 6 0 10 -2 10 -4z m-303 -28 c-3 -8 -6 -5 -6 6 -1 11 2 17 5 13 3 -3 4
-12 1 -19z m-634 -245 c-3 -10 -11 -24 -16 -31 -5 -7 -12 -43 -15 -80 -4 -60
-1 -75 24 -127 16 -32 48 -79 71 -106 42 -46 52 -72 33 -84 -13 -8 -50 13 -50
29 0 7 -8 20 -19 30 -10 9 -26 36 -36 59 -9 23 -24 54 -31 69 -18 34 -42 173
-36 205 4 21 9 24 33 21 16 -3 27 -2 24 0 -5 5 13 32 21 32 2 0 1 -8 -3 -17z
m101 -45 c-3 -12 -17 -33 -30 -47 -13 -14 -24 -35 -24 -46 0 -11 -4 -26 -9
-33 -14 -23 -20 23 -9 68 10 37 47 80 70 80 5 0 6 -10 2 -22z m244 -50 c3 -49
-6 -46 -18 6 -5 25 -4 36 4 36 6 0 12 -19 14 -42z m1385 25 c-13 -2 -35 -2
-50 0 -16 2 -5 4 22 4 28 0 40 -2 28 -4z m-90 -10 c-7 -2 -21 -2 -30 0 -10 3
-4 5 12 5 17 0 24 -2 18 -5z m-103 -13 c-14 -4 -32 -8 -40 -9 -13 -1 -13 0 0
9 8 5 26 9 40 9 l25 -1 -25 -8z m260 -60 c0 -5 -4 -10 -10 -10 -5 0 -10 5 -10
10 0 6 5 10 10 10 6 0 10 -4 10 -10z m198 -9 c24 -20 19 -31 -15 -31 -22 0
-33 27 -16 43 8 9 7 10 31 -12z m-1628 -86 c0 -41 -5 -77 -10 -80 -6 -4 -8
-10 -5 -15 8 -13 -40 -87 -65 -100 -35 -19 -25 38 15 89 37 47 49 88 43 150
-2 28 0 37 9 34 9 -4 13 -29 13 -78z m1425 35 c18 -7 33 -7 46 1 15 8 24 7 35
-2 8 -6 17 -9 21 -6 3 4 12 -1 18 -10 18 -24 -1 -39 -41 -35 -26 3 -35 0 -40
-14 -16 -53 -38 -67 -49 -32 -10 34 -12 68 -3 68 4 0 8 5 8 10 0 6 -6 10 -14
10 -8 0 -18 5 -21 10 -8 13 7 13 40 0z m-988 -45 c0 -8 -6 -16 -14 -19 -16 -7
-17 6 -1 22 15 15 15 15 15 -3z m858 -124 c18 -35 10 -65 -14 -55 -9 3 -29 9
-45 13 -31 7 -56 35 -42 48 4 4 12 0 17 -9 12 -21 35 -14 42 13 7 28 24 23 42
-10z m-2057 -110 c16 -13 16 -13 -1 -7 -10 3 -21 6 -23 6 -2 0 -3 15 -3 33 1
27 2 28 6 7 2 -14 12 -31 21 -39z m84 22 c10 -9 18 -22 18 -30 0 -7 7 -13 15
-13 8 0 15 4 15 10 0 5 7 7 15 4 8 -4 15 -11 15 -16 0 -6 -7 -7 -16 -4 -12 4
-15 2 -10 -9 3 -8 3 -15 0 -15 -11 0 -75 54 -85 72 -13 23 7 25 33 1z m-415 1
c-3 -3 -12 -4 -19 -1 -8 3 -5 6 6 6 11 1 17 -2 13 -5z m2163 -19 c0 -8 -6 -15
-14 -15 -17 0 -28 14 -19 24 12 12 33 6 33 -9z m17 -63 c10 -7 10 -14 0 -35
-16 -35 -22 -34 -34 8 -10 30 -9 35 5 35 10 0 23 -4 29 -8z m-519 -46 c11 -11
-1 -12 -60 -8 -106 6 -149 -8 -200 -69 -48 -55 -79 -79 -112 -85 -21 -3 -23 0
-21 33 3 43 55 113 85 113 10 0 22 4 25 10 13 20 74 29 170 24 60 -4 105 -11
113 -18z m42 -16 c0 -5 -2 -10 -4 -10 -3 0 -8 5 -11 10 -3 6 -1 10 4 10 6 0
11 -4 11 -10z m-185 -56 c0 -10 -6 -25 -12 -32 -7 -7 -13 -36 -13 -62 0 -41 4
-52 24 -65 33 -22 77 -25 104 -7 29 19 64 97 56 128 -3 13 -4 24 -1 24 39 0
63 -59 48 -117 -16 -60 -60 -95 -123 -101 -67 -5 -120 23 -149 80 -18 35 -19
45 -9 94 7 35 19 59 33 69 27 19 42 15 42 -11z m-1675 2 c0 -11 -19 -15 -25
-6 -3 5 1 10 9 10 9 0 16 -2 16 -4z m215 -16 l30 -8 -30 0 c-16 0 -39 3 -50 8
l-20 9 20 -1 c11 0 34 -4 50 -8z m1605 -70 c0 -5 -4 -10 -9 -10 -6 0 -13 5
-16 10 -3 6 1 10 9 10 9 0 16 -4 16 -10z m-256 -110 c41 -55 136 -95 205 -87
51 6 124 37 138 59 4 7 16 19 25 27 17 12 17 10 12 -33 -6 -40 -3 -50 16 -71
12 -13 19 -28 16 -34 -4 -5 3 -12 14 -16 11 -3 20 -13 20 -20 0 -25 -23 -65
-37 -65 -7 0 -16 0 -20 -1 -4 0 -9 4 -11 10 -2 6 4 11 13 11 9 0 15 6 12 13
-2 7 -18 11 -36 9 -18 -1 -30 2 -27 7 11 17 -18 26 -79 22 -49 -2 -68 2 -105
22 -25 14 -64 28 -88 32 -24 4 -56 13 -70 21 -15 8 -39 14 -53 14 -27 0 -39
16 -39 50 0 20 39 70 55 70 6 0 23 -18 39 -40z m-1609 -60 c-3 -5 -12 -10 -18
-10 -7 0 -6 4 3 10 19 12 23 12 15 0z m-75 -50 c0 -11 -42 -31 -49 -24 -2 2 2
10 9 19 14 17 40 20 40 5z m267 4 c-3 -3 -12 -4 -19 -1 -8 3 -5 6 6 6 11 1 17
-2 13 -5z m1349 -42 c-10 -10 -29 15 -21 28 6 9 10 8 17 -4 6 -10 7 -20 4 -24z
m-1473 11 c-7 -2 -19 -2 -25 0 -7 3 -2 5 12 5 14 0 19 -2 13 -5z m1507 -57 c0
-3 -4 -8 -10 -11 -5 -3 -10 -1 -10 4 0 6 5 11 10 11 6 0 10 -2 10 -4z m-34
-18 c24 -8 34 -19 38 -41 8 -37 5 -40 -28 -31 -16 4 -26 13 -26 24 0 10 -7 23
-15 30 -15 13 -20 30 -8 30 4 0 21 -5 39 -12z m-898 -10 c17 -17 15 -39 -4
-31 -10 4 -17 -1 -21 -16 -5 -20 -23 -30 -23 -12 0 16 22 71 29 71 4 0 12 -5
19 -12z m1217 -9 c11 -17 0 -20 -21 -4 -17 13 -17 14 -2 15 9 0 20 -5 23 -11z
m-357 -17 c2 -7 -3 -12 -12 -12 -9 0 -16 7 -16 16 0 17 22 14 28 -4z m454 -6
c4 3 9 1 12 -4 6 -9 -53 -36 -61 -28 -2 2 2 16 9 31 10 23 14 25 23 11 7 -9
14 -13 17 -10z m-522 -46 c0 -5 -4 -10 -10 -10 -5 0 -10 5 -10 10 0 6 5 10 10
10 6 0 10 -4 10 -10z m547 4 c-3 -3 -12 -4 -19 -1 -8 3 -5 6 6 6 11 1 17 -2
13 -5z m-2057 -35 c0 -18 -2 -19 -15 -9 -15 12 -12 30 6 30 5 0 9 -10 9 -21z
m1808 3 c2 -7 -2 -10 -12 -6 -9 3 -16 11 -16 16 0 13 23 5 28 -10z m-3978 -72
c-19 -13 -30 -13 -30 0 0 6 10 10 23 10 18 0 19 -2 7 -10z m2770 0 c0 -5 -12
-10 -27 -10 -22 0 -25 2 -13 10 20 13 40 13 40 0z m1590 -16 c0 -8 -5 -12 -10
-9 -6 4 -8 11 -5 16 9 14 15 11 15 -7z m-1430 -46 c28 -29 50 -56 50 -59 0 -4
8 -9 17 -11 16 -3 15 -6 -4 -25 -29 -29 -68 -18 -68 19 -1 13 -9 35 -18 48 -9
13 -17 32 -17 42 0 10 -7 18 -15 18 -8 0 -15 5 -15 10 0 21 22 8 70 -42z
m-682 -27 c3 -8 -1 -12 -9 -9 -7 2 -15 10 -17 17 -3 8 1 12 9 9 7 -2 15 -10
17 -17z m616 -22 c-8 -14 -24 -10 -24 6 0 9 6 12 15 9 8 -4 12 -10 9 -15z
m-584 -13 c0 -7 9 -16 21 -19 18 -5 19 -8 8 -29 -7 -14 -14 -18 -17 -10 -2 6
-16 12 -31 12 -23 0 -27 4 -25 28 2 34 0 32 24 32 11 0 20 -6 20 -14z m220
-246 c0 -5 -5 -10 -11 -10 -5 0 -7 5 -4 10 3 6 8 10 11 10 2 0 4 -4 4 -10z
m1765 -10 c3 -5 1 -10 -4 -10 -6 0 -11 5 -11 10 0 6 2 10 4 10 3 0 8 -4 11
-10z m-45 -55 c0 -14 -98 -115 -112 -115 -4 0 -10 -9 -13 -20 -10 -30 -25 -14
-25 26 0 19 -4 34 -10 34 -5 0 -10 5 -10 12 0 9 3 9 11 1 24 -24 120 40 103
68 -3 5 9 9 25 9 21 0 31 -5 31 -15z m-1338 -46 c-2 -24 -5 -46 -7 -47 -11
-12 -43 13 -53 41 -19 53 -16 59 26 55 l37 -4 -3 -45z m-302 23 c0 -10 -44
-32 -62 -32 -6 0 -3 9 7 20 18 20 55 28 55 12z m1684 -48 c10 -26 7 -34 -14
-34 -13 0 -20 7 -20 18 0 33 23 44 34 16z m-1706 -21 c-2 -10 -13 -19 -26 -21
-24 -4 -25 -2 -16 22 9 23 46 21 42 -1z m0 -86 c-2 -14 -11 -23 -25 -25 -19
-3 -23 1 -21 20 1 17 9 25 26 26 19 2 23 -2 20 -21z m49 -22 c8 -23 0 -25 -21
-4 -18 17 -18 19 -2 19 9 0 19 -7 23 -15z m486 -56 c-8 -8 -15 -5 -23 11 -10
18 -9 24 1 31 18 11 37 -27 22 -42z m-589 -104 c4 -11 -2 -15 -21 -15 -21 0
-24 2 -13 15 7 8 16 15 20 15 4 0 10 -7 14 -15z m911 -29 c-6 -28 -3 -36 14
-45 12 -7 21 -18 21 -26 0 -7 5 -15 12 -17 6 -2 8 -10 4 -16 -5 -9 -17 -4 -42
15 -29 22 -37 24 -45 12 -13 -21 -11 -34 11 -54 11 -10 20 -23 19 -29 0 -6 -3
-6 -6 2 -2 6 -9 10 -14 6 -5 -3 -21 4 -34 15 -16 12 -22 22 -15 26 6 4 10 19
9 33 -3 36 9 60 31 67 10 3 20 15 23 25 9 34 18 22 12 -14z m-862 -12 c-8 -21
-27 -12 -31 15 -3 20 -1 21 17 12 12 -7 18 -17 14 -27z m41 -16 c-4 -25 -2
-29 5 -18 8 12 11 8 11 -16 0 -28 -2 -30 -30 -26 -35 5 -35 7 -15 56 19 45 35
47 29 4z m-454 -58 c0 -5 -2 -10 -4 -10 -3 0 -8 5 -11 10 -3 6 -1 10 4 10 6 0
11 -4 11 -10z m45 -50 c3 -5 2 -10 -4 -10 -5 0 -13 5 -16 10 -3 6 -2 10 4 10
5 0 13 -4 16 -10z m67 -24 c15 -11 14 -13 -12 -13 -18 0 -30 6 -30 14 0 16 20
16 42 -1z m50 -52 c6 -8 -1 -11 -24 -9 -18 2 -35 3 -38 4 -3 1 6 10 20 21 17
13 26 15 29 7 2 -7 8 -17 13 -23z m265 16 c3 -11 14 -20 25 -20 17 0 17 -2 -6
-27 -14 -15 -23 -30 -20 -35 9 -15 34 -8 46 12 18 29 46 25 54 -7 4 -16 11
-30 15 -33 4 -3 -6 -13 -23 -23 -26 -15 -29 -15 -24 -2 4 11 -3 19 -20 25 -34
13 -34 13 -34 -11 0 -18 -3 -19 -15 -9 -9 7 -25 10 -42 5 -23 -5 -25 -4 -14 9
24 28 7 37 -31 16 -46 -24 -52 -25 -44 -4 4 9 2 22 -4 29 -14 17 23 49 50 42
11 -3 18 -1 14 4 -3 5 6 13 20 19 14 5 26 14 26 20 0 18 22 10 27 -10z m-587
6 c0 -3 -4 -8 -10 -11 -5 -3 -10 -1 -10 4 0 6 5 11 10 11 6 0 10 -2 10 -4z
m392 -38 c-9 -9 -12 -7 -12 12 0 19 3 21 12 12 9 -9 9 -15 0 -24z m-228 -13
c18 -14 46 -25 62 -26 27 0 28 -1 8 -11 -16 -7 -31 -6 -58 7 -20 10 -36 21
-36 26 0 5 -6 9 -14 9 -8 0 -18 5 -21 10 -12 19 27 10 59 -15z m-194 -12 c14
-6 34 -15 45 -19 17 -7 14 -9 -14 -12 -24 -2 -37 1 -43 12 -5 9 -21 16 -36 17
-24 0 -25 1 -7 8 11 5 22 8 25 7 3 -1 16 -7 30 -13z m100 -58 c0 -8 -4 -15
-10 -15 -5 0 -10 7 -10 15 0 8 5 15 10 15 6 0 10 -7 10 -15z m90 -27 c0 -11
-17 -10 -41 3 -28 15 -13 31 16 17 14 -6 25 -15 25 -20z m913 15 c-7 -2 -13
-11 -13 -19 0 -8 -4 -14 -10 -14 -5 0 -10 4 -10 8 0 12 22 32 35 31 5 0 4 -3
-2 -6z m-1143 -13 c0 -5 -7 -10 -15 -10 -8 0 -15 5 -15 10 0 6 7 10 15 10 8 0
15 -4 15 -10z m309 -26 c1 -1 0 -7 -3 -13 -8 -12 -66 6 -66 21 0 8 58 2 69 -8z
m-230 -18 c5 -6 6 -18 2 -25 -7 -10 -13 -11 -30 -2 -12 7 -19 16 -16 22 4 5 1
9 -4 9 -6 0 -11 4 -11 9 0 11 47 1 59 -13z m271 -6 c0 -5 -2 -10 -4 -10 -3 0
-8 5 -11 10 -3 6 -1 10 4 10 6 0 11 -4 11 -10z m-10 -140 c0 -5 -7 -10 -15
-10 -8 0 -15 5 -15 10 0 6 7 10 15 10 8 0 15 -4 15 -10z m50 -261 c0 -11 -11
-11 -29 0 -7 5 -10 14 -6 20 5 9 10 9 21 0 8 -6 14 -15 14 -20z m-302 -79 c-7
-11 -17 -20 -22 -20 -5 0 -1 9 9 20 10 11 20 20 22 20 2 0 -2 -9 -9 -20z m-37
-67 c-8 -15 -10 -15 -11 -2 0 17 10 32 18 25 2 -3 -1 -13 -7 -23z m-1536 -42
c3 -5 -4 -13 -16 -16 -23 -8 -34 -1 -24 14 8 13 32 14 40 2z m35 -90 c0 -5 -9
-7 -20 -4 -11 3 -20 7 -20 9 0 2 9 4 20 4 11 0 20 -4 20 -9z m47 -87 c-3 -3
-12 -4 -19 -1 -8 3 -5 6 6 6 11 1 17 -2 13 -5z m650 -60 c-3 -3 -12 -4 -19 -1
-8 3 -5 6 6 6 11 1 17 -2 13 -5z m922 -333 c-3 -6 -10 -7 -18 -2 -7 5 -10 14
-6 21 9 14 29 -2 24 -19z m-73 -21 c8 0 14 -9 14 -20 0 -11 -4 -20 -10 -20 -5
0 -10 7 -10 16 0 11 -6 15 -20 11 -23 -6 -26 3 -8 21 8 8 14 9 16 2 2 -5 10
-10 18 -10z m-120 -137 c-10 -10 -19 5 -10 18 6 11 8 11 12 0 2 -7 1 -15 -2
-18z m-106 -3 c0 -5 -4 -10 -9 -10 -6 0 -13 5 -16 10 -3 6 1 10 9 10 9 0 16
-4 16 -10z m5 -110 c-3 -5 -10 -10 -16 -10 -5 0 -9 5 -9 10 0 6 7 10 16 10 8
0 12 -4 9 -10z m82 -6 c29 -8 20 -24 -13 -24 -15 0 -24 6 -24 15 0 17 4 18 37
9z m-58 -50 c34 -7 42 -24 11 -24 -11 0 -20 4 -20 9 0 5 -10 12 -22 14 -13 2
-18 5 -12 6 6 0 26 -2 43 -5z m-23 -68 c21 -22 18 -43 -4 -23 -10 10 -24 17
-30 17 -7 0 -12 5 -12 10 0 15 29 12 46 -4z m121 -22 c-3 -3 -12 -4 -19 -1 -8
3 -5 6 6 6 11 1 17 -2 13 -5z m-250 -20 c-3 -3 -12 -4 -19 -1 -8 3 -5 6 6 6
11 1 17 -2 13 -5z m192 -17 c8 -11 5 -13 -19 -9 -16 2 -27 8 -24 13 8 13 30
11 43 -4z m-1309 -1 c0 -11 -19 -15 -25 -6 -3 5 1 10 9 10 9 0 16 -2 16 -4z
m680 -143 c-1 -19 -18 -33 -34 -27 -15 6 -14 8 6 19 29 17 28 16 28 8z m-720
-25 c0 -19 -2 -20 -10 -8 -13 19 -13 30 0 30 6 0 10 -10 10 -22z m1636 -54
c-5 -17 -12 -24 -24 -22 -21 4 -29 38 -9 38 8 0 18 8 22 18 10 24 19 -2 11
-34z m-163 25 c-6 -6 -9 -19 -6 -28 4 -13 3 -13 -5 -2 -11 15 -62 8 -62 -9 0
-6 -7 -10 -15 -10 -8 0 -15 5 -15 11 0 5 4 7 10 4 6 -3 7 1 4 9 -3 9 -2 17 2
17 5 1 22 3 38 5 15 1 31 5 34 8 3 4 10 6 16 6 6 0 6 -4 -1 -11z m-1488 -29
c-3 -5 -11 -10 -16 -10 -6 0 -7 5 -4 10 3 6 11 10 16 10 6 0 7 -4 4 -10z
m1085 -40 c0 -5 -5 -10 -11 -10 -5 0 -7 5 -4 10 3 6 8 10 11 10 2 0 4 -4 4
-10z m-1004 -53 c8 3 14 -1 14 -11 0 -9 -7 -16 -15 -16 -20 0 -19 -16 1 -24
13 -5 14 -9 4 -21 -10 -12 -10 -15 3 -15 11 0 16 -13 19 -45 3 -42 1 -45 -21
-45 -13 0 -22 3 -18 6 7 8 -24 44 -39 44 -7 0 -14 6 -17 13 -7 18 3 67 13 67
5 0 11 14 15 31 5 21 10 28 17 21 6 -6 17 -8 24 -5z m-118 -42 c-2 -10 -7 -12
-17 -5 -13 7 -13 11 -1 25 15 18 24 8 18 -20z m302 17 c0 -13 -69 -74 -80 -70
-17 5 39 78 60 78 11 0 20 -4 20 -8z m273 -24 c9 8 22 9 37 4 l24 -9 -22 -5
c-17 -5 -22 -14 -22 -37 0 -29 -18 -45 -21 -18 -1 6 -5 -4 -9 -23 -8 -33 -8
-33 -7 12 0 26 -2 50 -6 54 -4 4 -7 14 -7 23 0 14 2 14 9 2 8 -12 13 -12 24
-3z m49 -54 c-4 -23 -6 -24 -15 -9 -8 14 2 32 19 35 1 0 -1 -12 -4 -26z m-82
6 c0 -5 -5 -10 -11 -10 -5 0 -7 5 -4 10 3 6 8 10 11 10 2 0 4 -4 4 -10z m642
-25 c19 -7 11 -65 -8 -65 -17 0 -18 17 -1 23 10 4 10 7 0 18 -22 22 -17 34 9
24z m1864 -100 c-1 -33 -16 -33 -16 0 0 14 4 25 9 25 5 0 8 -11 7 -25z m464
-96 c0 -5 4 -8 9 -5 9 6 51 -26 51 -38 0 -9 -32 0 -77 21 -18 8 -30 19 -27 24
7 13 44 11 44 -2z m-2150 -23 c0 -11 -19 -15 -25 -6 -3 5 1 10 9 10 9 0 16 -2
16 -4z m55 -26 c3 -5 -3 -10 -15 -10 -12 0 -18 5 -15 10 3 6 10 10 15 10 5 0
12 -4 15 -10z m162 -2 c-2 -7 2 -21 10 -30 20 -22 7 -41 -22 -34 -13 3 -27 2
-30 -4 -9 -14 -21 -12 -39 6 -10 9 -16 11 -16 4 0 -15 -42 -8 -48 8 -2 8 7 12
27 12 24 0 29 3 24 16 -8 21 14 34 60 34 27 0 37 -4 34 -12z m83 2 c0 -5 -5
-21 -12 -34 -11 -26 -11 -26 -25 -5 -8 11 -12 26 -9 34 6 16 46 21 46 5z
m1977 -26 c-6 -6 -47 9 -47 17 0 5 11 3 25 -3 14 -6 24 -13 22 -14z m38 -14
c3 -6 -1 -7 -9 -4 -18 7 -21 14 -7 14 6 0 13 -4 16 -10z m-2285 -20 c0 -5 -9
-14 -20 -20 -22 -12 -27 -1 -8 18 14 14 28 16 28 2z m33 -54 c6 -15 -1 -26
-15 -26 -4 0 -8 9 -8 20 0 23 15 27 23 6z m2323 -21 c42 -40 56 -123 29 -175
-18 -35 -75 -70 -75 -46 0 8 6 19 14 23 7 4 21 23 30 41 26 50 13 105 -33 148
-34 32 -35 34 -11 31 14 -1 35 -11 46 -22z"/>
<path d="M4800 6664 c0 -8 5 -12 10 -9 6 3 10 10 10 16 0 5 -4 9 -10 9 -5 0
-10 -7 -10 -16z"/>
<path d="M4872 6573 c2 -18 8 -27 17 -25 9 2 12 -4 8 -18 -3 -11 -1 -20 4 -20
14 0 11 27 -6 60 -19 37 -27 38 -23 3z"/>
<path d="M4820 6500 c0 -5 6 -10 14 -10 8 0 18 5 21 10 3 6 -3 10 -14 10 -12
0 -21 -4 -21 -10z"/>
<path d="M4750 6430 c0 -5 5 -10 11 -10 5 0 7 5 4 10 -3 6 -8 10 -11 10 -2 0
-4 -4 -4 -10z"/>
<path d="M4814 6355 c10 -8 23 -12 29 -8 11 7 -12 23 -33 23 -12 -1 -11 -4 4
-15z"/>
<path d="M4830 6260 l-25 -8 28 -1 c15 -1 27 4 27 9 0 6 -1 10 -2 9 -2 -1 -14
-5 -28 -9z"/>
<path d="M6145 5365 c23 -8 85 -10 85 -3 0 4 -21 8 -47 7 -27 0 -43 -2 -38 -4z"/>
<path d="M6277 5349 c7 -7 15 -10 18 -7 3 3 -2 9 -12 12 -14 6 -15 5 -6 -5z"/>
<path d="M3825 4630 c-4 -6 11 -10 37 -9 33 0 38 2 23 9 -28 12 -53 12 -60 0z"/>
<path d="M3860 4590 c0 -5 -9 -10 -19 -10 -11 0 -23 -4 -26 -10 -3 -5 0 -8 7
-6 7 3 25 7 41 10 28 7 38 26 12 26 -8 0 -15 -4 -15 -10z"/>
<path d="M3718 4503 c7 -3 16 -2 19 1 4 3 -2 6 -13 5 -11 0 -14 -3 -6 -6z"/>
<path d="M4572 4228 c5 -14 66 -58 80 -58 22 0 0 36 -32 52 -42 21 -53 22 -48
6z"/>
<path d="M5260 4155 c0 -8 -5 -15 -11 -15 -5 0 -7 -4 -4 -10 3 -5 1 -10 -4
-10 -6 0 -11 -5 -11 -11 0 -6 8 -9 18 -7 9 2 16 10 15 16 -2 7 6 12 17 12 24
0 27 25 4 34 -22 9 -24 8 -24 -9z"/>
<path d="M4607 4115 c31 -38 43 -44 43 -19 0 9 -9 18 -19 21 -11 3 -22 11 -25
19 -3 8 -10 14 -16 14 -6 0 2 -16 17 -35z"/>
<path d="M4690 4135 c7 -8 17 -15 22 -15 5 0 3 7 -6 15 -8 8 -18 15 -22 15 -3
0 -1 -7 6 -15z"/>
<path d="M4875 4030 c3 -5 8 -10 11 -10 2 0 4 5 4 10 0 6 -5 10 -11 10 -5 0
-7 -4 -4 -10z"/>
<path d="M4840 3931 c0 -6 5 -13 10 -16 6 -3 10 1 10 9 0 9 -4 16 -10 16 -5 0
-10 -4 -10 -9z"/>
<path d="M4892 3753 c2 -9 9 -18 16 -21 18 -6 15 25 -4 32 -11 4 -14 1 -12
-11z"/>
<path d="M5036 3615 c-9 -14 -25 -25 -36 -25 -11 0 -20 -7 -20 -15 0 -16 41
-17 56 -2 4 4 16 7 26 7 22 0 25 32 4 49 -11 9 -17 6 -30 -14z"/>
<path d="M4930 3550 c0 -6 7 -10 15 -10 8 0 15 2 15 4 0 2 -7 6 -15 10 -8 3
-15 1 -15 -4z"/>
<path d="M4647 3301 c3 -12 12 -21 20 -21 20 0 12 34 -9 38 -12 2 -15 -2 -11
-17z"/>
<path d="M4259 3254 c-2 -17 3 -69 7 -76 8 -12 34 3 34 19 0 16 -39 71 -41 57z"/>
<path d="M4205 3190 c3 -5 8 -10 11 -10 2 0 4 5 4 10 0 6 -5 10 -11 10 -5 0
-7 -4 -4 -10z"/>
<path d="M3956 3059 c-28 -22 -34 -39 -13 -39 16 0 57 37 57 50 0 16 -15 12
-44 -11z"/>
<path d="M4460 3047 c0 -14 -2 -31 -3 -39 -2 -7 -2 -10 0 -5 3 4 11 7 19 7 19
0 18 34 -1 50 -13 11 -15 8 -15 -13z"/>
<path d="M3965 2960 c-3 -5 -1 -10 4 -10 6 0 11 5 11 10 0 6 -2 10 -4 10 -3 0
-8 -4 -11 -10z"/>
<path d="M4442 2958 c-7 -7 -12 -18 -12 -25 0 -7 -4 -13 -10 -13 -5 0 -10 -4
-10 -10 0 -5 12 -10 26 -10 14 0 23 4 20 9 -4 5 -1 11 4 13 7 2 8 12 3 26 -7
18 -11 20 -21 10z"/>
<path d="M4010 2870 c0 -5 5 -10 10 -10 6 0 10 5 10 10 0 6 -4 10 -10 10 -5 0
-10 -4 -10 -10z"/>
<path d="M3950 2848 c0 -4 5 -10 11 -13 6 -5 4 -12 -8 -20 -17 -13 -17 -14 0
-21 22 -8 23 -7 30 31 5 26 2 31 -14 31 -10 0 -19 -4 -19 -8z"/>
<path d="M4432 2849 c2 -7 10 -15 17 -17 8 -3 12 1 9 9 -2 7 -10 15 -17 17 -8
3 -12 -1 -9 -9z"/>
<path d="M3506 2832 c-3 -5 15 -29 39 -53 27 -26 42 -50 40 -59 -4 -12 3 -16
30 -16 19 0 37 6 39 13 3 7 1 13 -4 13 -6 0 -10 6 -10 14 0 8 -20 29 -45 47
-25 18 -45 36 -45 41 0 11 -37 10 -44 0z"/>
<path d="M4002 2768 c-14 -14 -16 -48 -2 -48 5 0 12 -16 16 -35 7 -38 -18 -91
-37 -79 -6 3 -18 -1 -28 -10 -14 -12 -16 -25 -12 -54 5 -32 10 -37 36 -40 30
-3 30 -2 30 48 0 28 5 54 11 58 6 4 15 18 19 30 5 18 12 22 28 18 12 -3 28 -6
35 -6 6 0 12 -10 12 -22 0 -37 15 -51 43 -44 17 4 33 -1 51 -15 14 -11 30 -17
36 -14 18 11 11 47 -10 52 -11 3 -20 10 -20 15 0 7 -5 6 -14 -1 -16 -14 -36 6
-51 53 -8 25 -15 31 -40 31 -38 1 -55 11 -55 35 0 25 -33 43 -48 28z"/>
<path d="M4563 2695 c0 -8 4 -15 9 -15 4 0 8 7 8 15 0 8 -4 15 -8 15 -5 0 -9
-7 -9 -15z"/>
<path d="M3607 2633 c-15 -4 -17 -11 -12 -31 10 -39 14 -40 41 -9 37 43 29 55
-29 40z"/>
<path d="M4798 2608 c-7 -13 -12 -27 -13 -33 -1 -24 -17 -54 -30 -59 -9 -3
-15 -19 -15 -40 0 -19 -4 -38 -10 -41 -5 -3 -10 -17 -10 -31 0 -14 -6 -27 -14
-30 -12 -5 -13 -11 -1 -44 12 -33 11 -40 -3 -53 -9 -10 -16 -37 -18 -66 -1
-28 -6 -56 -11 -63 -10 -16 -11 -138 0 -138 12 0 8 -48 -5 -53 -10 -3 -8 -9 4
-23 11 -11 21 -15 27 -9 5 6 12 84 15 175 8 235 14 275 56 335 19 28 38 52 41
55 3 3 9 35 12 73 6 69 -2 85 -25 45z"/>
<path d="M3706 2611 c-4 -7 -5 -15 -2 -18 9 -9 19 4 14 18 -4 11 -6 11 -12 0z"/>
<path d="M3832 2600 c0 -14 2 -19 5 -12 2 6 2 18 0 25 -3 6 -5 1 -5 -13z"/>
<path d="M4266 2603 c-12 -12 -5 -23 14 -23 11 0 20 4 20 9 0 11 -26 22 -34
14z"/>
<path d="M4120 2459 c0 -5 5 -7 10 -4 6 3 10 8 10 11 0 2 -4 4 -10 4 -5 0 -10
-5 -10 -11z"/>
<path d="M3195 2390 c-3 -5 -1 -10 4 -10 6 0 11 5 11 10 0 6 -2 10 -4 10 -3 0
-8 -4 -11 -10z"/>
<path d="M4567 2373 c-22 -21 7 -68 36 -57 27 10 27 41 0 53 -28 13 -28 13
-36 4z"/>
<path d="M4482 2319 c-11 -18 -11 -20 5 -17 10 2 17 -2 16 -9 -2 -7 1 -13 6
-13 15 0 33 29 27 45 -8 22 -39 19 -54 -6z"/>
<path d="M3172 2305 c0 -16 2 -22 5 -12 2 9 2 23 0 30 -3 6 -5 -1 -5 -18z"/>
<path d="M3646 2305 c-3 -8 -1 -15 4 -15 6 0 10 7 10 15 0 8 -2 15 -4 15 -2 0
-6 -7 -10 -15z"/>
<path d="M3550 2251 c0 -5 6 -23 14 -41 17 -41 30 -24 13 19 -11 29 -27 42
-27 22z"/>
<path d="M3326 2181 c-3 -5 1 -11 9 -15 8 -3 15 -1 15 4 0 13 -18 22 -24 11z"/>
<path d="M3002 1981 c-10 -6 -10 -10 0 -19 8 -6 19 -7 26 -3 10 6 10 10 0 19
-8 6 -19 7 -26 3z"/>
<path d="M4070 1924 c0 -49 9 -84 22 -84 6 0 7 8 3 18 -3 9 -8 35 -11 56 -5
52 -14 59 -14 10z"/>
<path d="M3940 1780 c0 -5 7 -10 15 -10 8 0 15 5 15 10 0 6 -7 10 -15 10 -8 0
-15 -4 -15 -10z"/>
<path d="M3070 1518 c0 -9 7 -19 16 -22 24 -9 54 -7 54 4 0 6 -10 10 -23 10
-13 0 -28 5 -35 12 -9 9 -12 8 -12 -4z"/>
<path d="M4644 1388 c-4 -6 -3 -13 2 -15 28 -10 39 -26 39 -55 0 -22 5 -34 16
-36 14 -2 17 6 16 45 0 31 -6 52 -16 60 -21 16 -48 16 -57 1z"/>
<path d="M4504 1303 c2 -16 11 -29 24 -34 33 -12 38 10 9 37 -33 30 -36 30
-33 -3z"/>
<path d="M4285 1090 c-3 -5 -1 -10 4 -10 6 0 11 5 11 10 0 6 -2 10 -4 10 -3 0
-8 -4 -11 -10z"/>
<path d="M4394 1069 c-16 -18 -16 -19 8 -19 14 0 28 6 31 14 9 23 -19 27 -39
5z"/>
<path d="M2960 1050 c0 -5 5 -10 11 -10 5 0 7 5 4 10 -3 6 -8 10 -11 10 -2 0
-4 -4 -4 -10z"/>
<path d="M4458 1044 c-3 -3 -4 -14 -1 -25 4 -13 14 -19 32 -19 22 1 24 2 9 11
-10 5 -18 17 -18 24 0 15 -12 20 -22 9z"/>
<path d="M4597 1013 c-4 -3 -7 -17 -7 -30 0 -20 5 -23 35 -23 39 0 46 17 17
43 -20 18 -34 21 -45 10z"/>
<path d="M2940 989 c0 -5 5 -7 10 -4 6 3 10 8 10 11 0 2 -4 4 -10 4 -5 0 -10
-5 -10 -11z"/>
<path d="M3145 880 c-19 -19 -39 -30 -57 -30 -17 0 -33 -8 -40 -20 -7 -11 -18
-20 -25 -20 -7 0 -10 -7 -7 -15 4 -10 18 -13 52 -11 26 3 53 0 60 -6 7 -7 17
-7 25 -1 6 5 23 10 36 11 13 0 31 8 41 17 19 18 20 51 2 49 -29 -2 -33 -5 -27
-14 3 -6 -1 -7 -9 -4 -16 6 -20 21 -17 57 3 23 -1 22 -34 -13z"/>
<path d="M2940 839 c0 -5 5 -7 10 -4 6 3 10 8 10 11 0 2 -4 4 -10 4 -5 0 -10
-5 -10 -11z"/>
<path d="M3260 656 c0 -9 5 -16 10 -16 6 0 10 4 10 9 0 6 -4 13 -10 16 -5 3
-10 -1 -10 -9z"/>
<path d="M3236 641 c-4 -7 -5 -15 -2 -18 9 -9 19 4 14 18 -4 11 -6 11 -12 0z"/>
</g>
</svg>
